<?xml version="1.0" encoding="utf-8"?>
<!-- Generator: Adobe Illustrator 22.0.0, SVG Export Plug-In . SVG Version: 6.00 Build 0)  -->
<svg version="1.1" id="Layer_1" xmlns="http://www.w3.org/2000/svg" xmlns:xlink="http://www.w3.org/1999/xlink" x="0px" y="0px"
	 viewBox="0 0 1190.6 453.5" style="enable-background:new 0 0 1190.6 453.5;" xml:space="preserve">
<style type="text/css">
	.st0{fill:#553E98;}
	.st1{fill:#354A9F;}
</style>
<g>
	<path class="st0" d="M297.5,329.5c0,26.2-8.7,49.3-26.2,69.1c-19.9,22.6-46.9,33.8-80.9,33.8c-33.9,0-60.8-11.3-80.7-33.8
		c-17.5-19.8-26.2-42.9-26.2-69.1c0-12,2.4-24.3,7.1-36.9c4.7-12.6,11-23.4,19-32.4c19.9-22.6,46.9-33.8,80.9-33.8
		s60.9,11.3,80.9,33.8C288.7,280,297.5,303.1,297.5,329.5z M245.4,329.5c0-13.6-4.4-25.4-13.1-35.4c-11.2-12.7-25.1-19-41.9-19
		c-11.5,0-22,3.2-31.4,9.7c-9.4,6.5-16,15.1-20,25.9c-2.3,6.2-3.4,12.4-3.4,18.7c0,13.1,4.4,24.8,13.1,35.1
		c10.8,12.8,24.7,19.2,41.7,19.2s31-6.3,41.9-19C241,354.5,245.4,342.8,245.4,329.5z"/>
	<path class="st0" d="M522.3,425.5H472l-92.5-118.4v118.4h-50.3V232.2h50.3L472,350.4V232.2h50.3V425.5z"/>
	<path class="st0" d="M673.4,425.5H562.8V232.2h50.3v151.4h60.3V425.5z"/>
	<path class="st0" d="M749.5,425.5h-50.3V232.2h50.3V425.5z"/>
	<path class="st0" d="M983.1,425.5h-50.3l-92.5-118.4v118.4H790V232.2h50.3l92.5,118.2V232.2h50.3V425.5z"/>
	<path class="st0" d="M1133.6,425.5h-110V232.2h110v41.9h-59.7v33h56.5V349h-56.5v34.6h59.8v41.9H1133.6z"/>
</g>
<g>
	<path class="st1" d="M271.5,214.5h-53.8l-54-69.4v69.4h-41.6v-160h41.6v66l50.7-66h51.2l-63.4,75.7L271.5,214.5z"/>
	<path class="st1" d="M442,214.5h-44.4l-10.3-27.9h-57.4l-11,27.9h-43.9l61.5-160h45.4L442,214.5z M376,155l-17.2-51l-17.5,51H376z"
		/>
	<path class="st1" d="M582.2,107.2c0,14.4-3.4,26.4-10.2,35.8c-8.8,12.3-23.5,18.4-43.9,18.4h-26v53.1h-41.6v-160h66.2
		c18.8,0,33.1,5.5,42.9,16.5C578,80.5,582.2,92.5,582.2,107.2z M539.1,107.7c0-6-1.7-10.7-5.2-14.3c-3.5-3.6-9.4-5.3-17.8-5.3h-14
		v39.8h13.9c9,0,15.2-2,18.6-5.9C537.5,118.5,539.1,113.7,539.1,107.7z"/>
	<path class="st1" d="M756.2,214.5h-44.4l-10.3-27.9h-57.4l-11,27.9h-43.9l61.5-160H696L756.2,214.5z M690.2,155L673,104l-17.5,51
		H690.2z"/>
	<path class="st1" d="M907.6,214.5h-51.7l-39.7-61.4v61.4h-41.6v-160h64.7c18.9,0,32.9,5.7,42,17c7.3,9.1,11,19.9,11,32.2
		c0,14.1-4.2,25.4-12.7,33.9c-5.4,5.4-12.8,9.1-22.3,11.3L907.6,214.5z M849.1,106c0-5.7-2.1-10.5-6.2-14.4
		c-3.9-3.7-10.2-5.5-18.9-5.5h-7.8V126h7.8c8.8,0,15.1-1.8,18.9-5.5C847.1,116.6,849.1,111.7,849.1,106z"/>
	<path class="st1" d="M1077.1,214.5h-44.4l-10.3-27.9h-57.4l-11,27.9H910l61.5-160h45.4L1077.1,214.5z M1011.1,155l-17.2-51
		l-17.5,51H1011.1z"/>
</g>
</svg>
